<svg width="133" height="32" viewBox="0 0 133 32" fill="none" xmlns="http://www.w3.org/2000/svg">
<path d="M59.5799 4.41606H63.4016C64.764 4.41606 65.8685 5.42108 65.8685 6.66075H65.9651C67.7065 4.90028 70.7058 3.75586 73.8499 3.75586C76.9939 3.75586 80.2834 5.07648 81.9765 7.01315H82.0731C84.2015 4.90028 87.2008 3.75586 90.4418 3.75586C97.3589 3.75586 102.148 7.89327 102.148 13.7914V27.7442H95.2305V14.8038C95.2305 11.5025 93.1018 9.47776 89.8128 9.47776C86.3298 9.47776 84.2015 11.4586 84.2015 14.8038V27.7442H77.5746V14.8038C77.5746 11.5025 75.3976 9.47776 72.1569 9.47776C68.6739 9.47776 66.4972 11.4586 66.4972 14.8038V25.1911C66.4972 26.4794 65.3264 27.7442 63.619 27.7442H59.5799V4.41606Z" fill="#20B55A"/>
<path d="M17.1395 13.5401C11.555 12.7071 10.1596 12.1822 10.1596 10.9992C10.1596 9.77301 12.0365 8.98488 15.0211 8.98488C17.9233 8.98488 20.3396 9.99599 21.5914 11.6692L28.1997 9.82494C26.2785 6.28065 20.9783 3.81647 15.0689 3.81647C7.99336 3.81647 3.32406 6.70731 3.32406 10.9992C3.32406 15.1164 6.69353 17.2188 15.9841 18.5334C20.6534 19.1899 22.2888 19.8031 22.2888 21.161C22.2888 22.4307 20.1707 23.1753 16.4655 23.1753C12.3372 23.1753 9.78894 21.6943 8.77244 18.7332C8.76769 18.7193 8.75199 18.7109 8.73629 18.7143L2.07324 20.1531C3.32406 25.19 8.90852 28.3437 16.4165 28.3437C24.1182 28.3437 29.1722 25.4529 29.1722 21.1164C29.1722 16.8688 25.6583 14.7663 17.1395 13.5401Z" fill="#20B55A"/>
<path fill-rule="evenodd" clip-rule="evenodd" d="M117.436 3.81669C111.806 3.81669 107.182 6.17675 105.286 9.82925L111.924 11.6822C112.997 10.0263 115.06 9.0286 117.628 9.0286C120.372 9.0286 122.153 9.94839 122.153 11.4813C122.153 12.6206 120.853 13.2337 116.088 13.8457C107.954 14.8536 104.873 17.1311 104.873 21.4233C104.873 25.5403 108.724 28.3429 114.404 28.3429C118.206 28.3429 121.479 27.1166 123.02 25.1456H123.115C123.115 26.5493 124.366 27.6863 125.907 27.6863H129.518V12.9271C129.518 7.27723 124.896 3.81669 117.436 3.81669ZM122.692 19.0732C122.692 21.3178 119.499 23.0344 115.388 23.0344C112.679 23.0344 111.421 22.4181 111.421 21.0096C111.421 20.5813 111.569 20.2137 111.902 19.8893C112.796 19.1832 114.365 18.9675 117.065 18.5962L117.438 18.5448C119.462 18.2601 121.204 17.9406 122.692 17.5726V19.0732Z" fill="#20B55A"/>
<path fill-rule="evenodd" clip-rule="evenodd" d="M31.7333 9.82925C33.6288 6.17675 38.2534 3.81669 43.8835 3.81669C51.3437 3.81669 55.9649 7.27723 55.9649 12.9271V27.6863H52.3545C50.8132 27.6863 49.5621 26.5493 49.5621 25.1456H49.4668C47.9267 27.1166 44.6528 28.3429 40.8511 28.3429C35.171 28.3429 31.3203 25.5403 31.3203 21.4233C31.3203 17.1311 34.4017 14.8536 42.5356 13.8457C47.3005 13.2337 48.6004 12.6206 48.6004 11.4813C48.6004 9.94839 46.819 9.0286 44.0757 9.0286C41.5077 9.0286 39.4442 10.0263 38.3716 11.6822L31.7333 9.82925ZM49.139 19.0732C49.139 21.3178 45.9465 23.0344 41.8348 23.0344C39.126 23.0344 37.868 22.4181 37.868 21.0096C37.868 20.5813 38.0162 20.2137 38.3493 19.8893C39.2432 19.1832 40.8123 18.9675 43.512 18.5962L43.8856 18.5448C45.9091 18.2601 47.6507 17.9406 49.139 17.5726V19.0732Z" fill="#20B55A"/>
</svg>
