<svg width="21" height="21" viewBox="0 0 21 21" fill="none" xmlns="http://www.w3.org/2000/svg">
<path fill-rule="evenodd" clip-rule="evenodd" d="M2.424 0.808C1.53151 0.808 0.808 1.53151 0.808 2.424C0.808 3.31649 1.53151 4.04 2.424 4.04C3.31649 4.04 4.04 3.31649 4.04 2.424C4.04 1.53151 3.31649 0.808 2.424 0.808ZM0 2.424C0 1.08526 1.08526 0 2.424 0C3.76274 0 4.848 1.08526 4.848 2.424C4.848 3.76274 3.76274 4.848 2.424 4.848C1.08526 4.848 0 3.76274 0 2.424Z" fill="#ABABAB"/>
<path fill-rule="evenodd" clip-rule="evenodd" d="M18.1799 0.808C17.2874 0.808 16.5639 1.53151 16.5639 2.424C16.5639 3.31649 17.2874 4.04 18.1799 4.04C19.0724 4.04 19.7959 3.31649 19.7959 2.424C19.7959 1.53151 19.0724 0.808 18.1799 0.808ZM15.7559 2.424C15.7559 1.08526 16.8411 0 18.1799 0C19.5186 0 20.6039 1.08526 20.6039 2.424C20.6039 3.76274 19.5186 4.848 18.1799 4.848C16.8411 4.848 15.7559 3.76274 15.7559 2.424Z" fill="#ABABAB"/>
<path fill-rule="evenodd" clip-rule="evenodd" d="M2.424 8.48403C1.53151 8.48403 0.808 9.20753 0.808 10.1C0.808 10.9925 1.53151 11.716 2.424 11.716C3.31649 11.716 4.04 10.9925 4.04 10.1C4.04 9.20753 3.31649 8.48403 2.424 8.48403ZM0 10.1C0 8.76129 1.08526 7.67603 2.424 7.67603C3.76274 7.67603 4.848 8.76129 4.848 10.1C4.848 11.4388 3.76274 12.524 2.424 12.524C1.08526 12.524 0 11.4388 0 10.1Z" fill="#ABABAB"/>
<path fill-rule="evenodd" clip-rule="evenodd" d="M2.424 16.1601C1.53151 16.1601 0.808 16.8836 0.808 17.7761C0.808 18.6685 1.53151 19.3921 2.424 19.3921C3.31649 19.3921 4.04 18.6685 4.04 17.7761C4.04 16.8836 3.31649 16.1601 2.424 16.1601ZM0 17.7761C0 16.4373 1.08526 15.3521 2.424 15.3521C3.76274 15.3521 4.848 16.4373 4.848 17.7761C4.848 19.1148 3.76274 20.2001 2.424 20.2001C1.08526 20.2001 0 19.1148 0 17.7761Z" fill="#ABABAB"/>
<path opacity="0.2" d="M7.67578 8.07997C7.67578 7.63373 8.03754 7.27197 8.48378 7.27197H19.3918C19.838 7.27197 20.1998 7.63373 20.1998 8.07997V18.988C20.1998 19.4342 19.838 19.796 19.3918 19.796H8.48378C8.03754 19.796 7.67578 19.4342 7.67578 18.988V8.07997Z" fill="#ABABAB"/>
<path fill-rule="evenodd" clip-rule="evenodd" d="M7.27148 8.07992C7.27148 7.41055 7.81412 6.86792 8.48348 6.86792H19.3915C20.0609 6.86792 20.6035 7.41055 20.6035 8.07992V18.9879C20.6035 19.6573 20.0609 20.1999 19.3915 20.1999H8.48348C7.81412 20.1999 7.27148 19.6573 7.27148 18.9879V8.07992ZM8.48348 7.67592C8.26036 7.67592 8.07948 7.8568 8.07948 8.07992V18.9879C8.07948 19.211 8.26036 19.3919 8.48348 19.3919H19.3915C19.6146 19.3919 19.7955 19.211 19.7955 18.9879V8.07992C19.7955 7.8568 19.6146 7.67592 19.3915 7.67592H8.48348Z" fill="#ABABAB"/>
<path fill-rule="evenodd" clip-rule="evenodd" d="M11.313 9.69594C10.6436 9.69594 10.101 10.2386 10.101 10.9079C10.101 11.5773 10.6436 12.1199 11.313 12.1199C11.9823 12.1199 12.525 11.5773 12.525 10.9079C12.525 10.2386 11.9823 9.69594 11.313 9.69594ZM9.29297 10.9079C9.29297 9.79232 10.1974 8.88794 11.313 8.88794C12.4286 8.88794 13.333 9.79232 13.333 10.9079C13.333 12.0236 12.4286 12.9279 11.313 12.9279C10.1974 12.9279 9.29297 12.0236 9.29297 10.9079Z" fill="#ABABAB"/>
<path fill-rule="evenodd" clip-rule="evenodd" d="M14.9793 14.3344C15.3033 14.0223 15.8198 14.035 16.1282 14.3626L18.7597 17.1586C19.1237 17.5453 18.8495 18.1799 18.3184 18.1799H9.49389C8.91152 18.1799 8.66439 17.4385 9.13029 17.0891L11.6497 15.1996C11.9229 14.9947 12.2955 14.9837 12.5803 15.1721L13.4868 15.7719L14.9793 14.3344ZM15.5398 14.9164L14.0473 16.3539C13.7748 16.6164 13.3566 16.6546 13.041 16.4458L12.1345 15.846L10.0999 17.3719H17.8509L15.5398 14.9164Z" fill="#ABABAB"/>
<path d="M4.81445 2.82802L9.10276 2.82802L12.4694 6.86802H13.5212L9.72348 2.31075C9.56996 2.12653 9.34255 2.02002 9.10276 2.02002H4.81445C4.8365 2.1514 4.84797 2.28637 4.84797 2.42402C4.84797 2.56167 4.8365 2.69664 4.81445 2.82802Z" fill="#ABABAB"/>
<path d="M17.7754 4.81445V6.86797H18.5834V4.81445C18.452 4.8365 18.317 4.84797 18.1794 4.84797C18.0417 4.84797 17.9068 4.8365 17.7754 4.81445Z" fill="#ABABAB"/>
<path d="M4.81445 10.504H7.27197V9.69604H4.81445C4.8365 9.82743 4.84797 9.9624 4.84797 10.1C4.84797 10.2377 4.8365 10.3727 4.81445 10.504Z" fill="#ABABAB"/>
<path d="M4.81445 18.1801H7.27197V17.3721H4.81445C4.8365 17.5035 4.84797 17.6384 4.84797 17.7761C4.84797 17.9137 4.8365 18.0487 4.81445 18.1801Z" fill="#ABABAB"/>
</svg>
